<svg width="28" height="28" viewBox="0 0 28 28" fill="none" xmlns="http://www.w3.org/2000/svg">
<path fill-rule="evenodd" clip-rule="evenodd" d="M4.95837 14C4.95837 13.5168 5.35012 13.125 5.83337 13.125H22.1667C22.65 13.125 23.0417 13.5168 23.0417 14C23.0417 14.4832 22.65 14.875 22.1667 14.875H5.83337C5.35012 14.875 4.95837 14.4832 4.95837 14Z" fill="#56817D"/>
<path fill-rule="evenodd" clip-rule="evenodd" d="M13.3813 5.21453C13.723 4.87282 14.277 4.87282 14.6187 5.21453L22.7854 13.3812C23.1271 13.7229 23.1271 14.2769 22.7854 14.6186L14.6187 22.7853C14.277 23.127 13.723 23.127 13.3813 22.7853C13.0396 22.4436 13.0396 21.8896 13.3813 21.5479L20.9292 13.9999L13.3813 6.45197C13.0396 6.11026 13.0396 5.55624 13.3813 5.21453Z" fill="#56817D"/>
</svg>
