<svg width="29" height="28" viewBox="0 0 29 28" fill="none" xmlns="http://www.w3.org/2000/svg">
<rect x="0.5" width="28" height="28" rx="14" fill="#E7FE54"/>
<path fill-rule="evenodd" clip-rule="evenodd" d="M19.9419 8.55806C20.186 8.80214 20.186 9.19786 19.9419 9.44194L9.94194 19.4419C9.69786 19.686 9.30214 19.686 9.05806 19.4419C8.81398 19.1979 8.81398 18.8021 9.05806 18.5581L19.0581 8.55806C19.3021 8.31398 19.6979 8.31398 19.9419 8.55806Z" fill="#56817D"/>
<path fill-rule="evenodd" clip-rule="evenodd" d="M9.05806 8.55806C9.30214 8.31398 9.69786 8.31398 9.94194 8.55806L19.9419 18.5581C20.186 18.8021 20.186 19.1979 19.9419 19.4419C19.6979 19.686 19.3021 19.686 19.0581 19.4419L9.05806 9.44194C8.81398 9.19786 8.81398 8.80214 9.05806 8.55806Z" fill="#56817D"/>
</svg>
