<svg width="20" height="20" viewBox="0 0 20 20" fill="none" xmlns="http://www.w3.org/2000/svg">
<path fill-rule="evenodd" clip-rule="evenodd" d="M10.0001 2.29166C5.74289 2.29166 2.29175 5.7428 2.29175 9.99999C2.29175 14.2572 5.74289 17.7083 10.0001 17.7083C14.2573 17.7083 17.7084 14.2572 17.7084 9.99999C17.7084 5.7428 14.2573 2.29166 10.0001 2.29166ZM1.04175 9.99999C1.04175 5.05244 5.05253 1.04166 10.0001 1.04166C14.9476 1.04166 18.9584 5.05244 18.9584 9.99999C18.9584 14.9475 14.9476 18.9583 10.0001 18.9583C5.05253 18.9583 1.04175 14.9475 1.04175 9.99999Z" fill="#56817D"/>
<path fill-rule="evenodd" clip-rule="evenodd" d="M10 4.375C10.3452 4.375 10.625 4.65482 10.625 5V9.61373L13.6128 11.1076C13.9216 11.262 14.0467 11.6374 13.8924 11.9462C13.738 12.2549 13.3626 12.3801 13.0538 12.2257L9.72049 10.559C9.50875 10.4531 9.375 10.2367 9.375 10V5C9.375 4.65482 9.65482 4.375 10 4.375Z" fill="#56817D"/>
</svg>
