<svg width="20" height="20" viewBox="0 0 20 20" fill="none" xmlns="http://www.w3.org/2000/svg">
<path fill-rule="evenodd" clip-rule="evenodd" d="M16.2751 1.79718C16.032 1.79718 15.7912 1.84507 15.5666 1.93812C15.3419 2.03117 15.1378 2.16755 14.9659 2.33948L3.06517 14.2402L2.08325 17.8406L5.68362 16.8587L17.5843 4.95793C17.7563 4.786 17.8927 4.58189 17.9857 4.35725C18.0788 4.13262 18.1266 3.89185 18.1266 3.6487C18.1266 3.40556 18.0788 3.16479 17.9857 2.94016C17.8927 2.71552 17.7563 2.51141 17.5843 2.33948C17.4124 2.16755 17.2083 2.03117 16.9837 1.93812C16.759 1.84507 16.5183 1.79718 16.2751 1.79718ZM15.0552 0.703592C15.442 0.543391 15.8565 0.460938 16.2751 0.460938C16.6937 0.460938 17.1083 0.543391 17.495 0.703592C17.8818 0.863792 18.2332 1.0986 18.5292 1.39461C18.8252 1.69062 19.06 2.04204 19.2202 2.4288C19.3804 2.81556 19.4629 3.23008 19.4629 3.6487C19.4629 4.06733 19.3804 4.48185 19.2202 4.86861C19.06 5.25537 18.8252 5.60679 18.5292 5.9028L6.50302 17.929C6.42081 18.0112 6.31856 18.0705 6.20638 18.1011L1.30682 19.4374C1.07551 19.5005 0.82813 19.4348 0.658594 19.2652C0.489058 19.0957 0.423363 18.8483 0.486448 18.617L1.82269 13.7174C1.85328 13.6053 1.91262 13.503 1.99484 13.4208L14.021 1.39461C14.317 1.0986 14.6685 0.863792 15.0552 0.703592Z" fill="#56817D"/>
</svg>
