<svg xmlns="http://www.w3.org/2000/svg">
    <symbol id="icon-trash" viewBox="0 0 28 28">
        <path d="M2.625 7C2.625 6.51675 3.01675 6.125 3.5 6.125H24.5C24.9832 6.125 25.375 6.51675 25.375 7C25.375 7.48325 24.9832 7.875 24.5 7.875H3.5C3.01675 7.875 2.625 7.48325 2.625 7Z"/>
        <path d="M11.6666 3.20834C11.2798 3.20834 10.9089 3.36199 10.6354 3.63548C10.3619 3.90897 10.2083 4.2799 10.2083 4.66668V7.00001C10.2083 7.48326 9.8165 7.87501 9.33325 7.87501C8.85 7.87501 8.45825 7.48326 8.45825 7.00001V4.66668C8.45825 3.81577 8.79627 2.99972 9.39795 2.39804C9.99963 1.79636 10.8157 1.45834 11.6666 1.45834H16.3333C17.1842 1.45834 18.0002 1.79636 18.6019 2.39804C19.2036 2.99972 19.5416 3.81577 19.5416 4.66668V7.00001C19.5416 7.48326 19.1498 7.87501 18.6666 7.87501C18.1833 7.87501 17.7916 7.48326 17.7916 7.00001V4.66668C17.7916 4.2799 17.6379 3.90897 17.3644 3.63548C17.091 3.36199 16.72 3.20834 16.3333 3.20834H11.6666ZM5.83325 6.12501C6.3165 6.12501 6.70825 6.51676 6.70825 7.00001V23.3333C6.70825 23.7201 6.8619 24.091 7.13539 24.3645C7.40888 24.638 7.77981 24.7917 8.16659 24.7917H19.8333C20.22 24.7917 20.591 24.638 20.8644 24.3645C21.1379 24.091 21.2916 23.7201 21.2916 23.3333V7.00001C21.2916 6.51676 21.6833 6.12501 22.1666 6.12501C22.6498 6.12501 23.0416 6.51676 23.0416 7.00001V23.3333C23.0416 24.1842 22.7036 25.0003 22.1019 25.602C21.5002 26.2037 20.6842 26.5417 19.8333 26.5417H8.16659C7.31568 26.5417 6.49963 26.2037 5.89795 25.602C5.29627 25.0003 4.95825 24.1842 4.95825 23.3333V7.00001C4.95825 6.51676 5.35 6.12501 5.83325 6.12501Z"/>
        <path d="M11.6667 11.9583C12.15 11.9583 12.5417 12.3501 12.5417 12.8333V19.8333C12.5417 20.3166 12.15 20.7083 11.6667 20.7083C11.1835 20.7083 10.7917 20.3166 10.7917 19.8333V12.8333C10.7917 12.3501 11.1835 11.9583 11.6667 11.9583Z"/>
        <path d="M16.3333 11.9583C16.8165 11.9583 17.2083 12.3501 17.2083 12.8333V19.8333C17.2083 20.3166 16.8165 20.7083 16.3333 20.7083C15.85 20.7083 15.4583 20.3166 15.4583 19.8333V12.8333C15.4583 12.3501 15.85 11.9583 16.3333 11.9583Z"/>
    </symbol>
    <symbol id="icon-stroke" viewBox="0 0 16 10">
        <path d="M7.38128 0.881282C7.72299 0.539573 8.27701 0.539573 8.61872 0.881282L15.6187 7.88128C15.9604 8.22299 15.9604 8.77701 15.6187 9.11872C15.277 9.46043 14.723 9.46043 14.3813 9.11872L8 2.73744L1.61872 9.11872C1.27701 9.46043 0.72299 9.46043 0.381282 9.11872C0.0395728 8.77701 0.0395728 8.22299 0.381282 7.88128L7.38128 0.881282Z"/>
    </symbol>

    <symbol id="icon-user" viewBox="0 0 32 32"  >
        <path fill-rule="evenodd" clip-rule="evenodd" d="M6.18824 20.855C7.37597 19.6673 8.98688 19 10.6666 19H21.3333C23.013 19 24.6239 19.6673 25.8116 20.855C26.9993 22.0427 27.6666 23.6536 27.6666 25.3333V28C27.6666 28.5523 27.2189 29 26.6666 29C26.1143 29 25.6666 28.5523 25.6666 28V25.3333C25.6666 24.1841 25.21 23.0819 24.3974 22.2692C23.5847 21.4565 22.4825 21 21.3333 21H10.6666C9.51731 21 8.41511 21.4565 7.60246 22.2692C6.7898 23.0819 6.33325 24.1841 6.33325 25.3333V28C6.33325 28.5523 5.88554 29 5.33325 29C4.78097 29 4.33325 28.5523 4.33325 28V25.3333C4.33325 23.6536 5.00051 22.0427 6.18824 20.855Z" fill="#F3FAF5"/>
        <path fill-rule="evenodd" clip-rule="evenodd" d="M16.0001 5C13.6068 5 11.6667 6.9401 11.6667 9.33333C11.6667 11.7266 13.6068 13.6667 16.0001 13.6667C18.3933 13.6667 20.3334 11.7266 20.3334 9.33333C20.3334 6.9401 18.3933 5 16.0001 5ZM9.66675 9.33333C9.66675 5.83553 12.5023 3 16.0001 3C19.4979 3 22.3334 5.83553 22.3334 9.33333C22.3334 12.8311 19.4979 15.6667 16.0001 15.6667C12.5023 15.6667 9.66675 12.8311 9.66675 9.33333Z" fill="#F3FAF5"/>
    </symbol>
    <symbol id="arrow-right" viewBox="0 0 28 28" >
        <path fill-rule="evenodd" clip-rule="evenodd" d="M4.95837 14C4.95837 13.5168 5.35012 13.125 5.83337 13.125H22.1667C22.65 13.125 23.0417 13.5168 23.0417 14C23.0417 14.4832 22.65 14.875 22.1667 14.875H5.83337C5.35012 14.875 4.95837 14.4832 4.95837 14Z" fill="#56817D"/>
        <path fill-rule="evenodd" clip-rule="evenodd" d="M13.3813 5.21453C13.723 4.87282 14.277 4.87282 14.6187 5.21453L22.7854 13.3812C23.1271 13.7229 23.1271 14.2769 22.7854 14.6186L14.6187 22.7853C14.277 23.127 13.723 23.127 13.3813 22.7853C13.0396 22.4436 13.0396 21.8896 13.3813 21.5479L20.9292 13.9999L13.3813 6.45197C13.0396 6.11026 13.0396 5.55624 13.3813 5.21453Z" fill="#56817D"/>
    </symbol>

    <symbol id="clock" viewBox="0 0 20 20">
        <path fill-rule="evenodd" clip-rule="evenodd" d="M10.0001 2.29166C5.74289 2.29166 2.29175 5.7428 2.29175 9.99999C2.29175 14.2572 5.74289 17.7083 10.0001 17.7083C14.2573 17.7083 17.7084 14.2572 17.7084 9.99999C17.7084 5.7428 14.2573 2.29166 10.0001 2.29166ZM1.04175 9.99999C1.04175 5.05244 5.05253 1.04166 10.0001 1.04166C14.9476 1.04166 18.9584 5.05244 18.9584 9.99999C18.9584 14.9475 14.9476 18.9583 10.0001 18.9583C5.05253 18.9583 1.04175 14.9475 1.04175 9.99999Z" fill="#56817D"/>
        <path fill-rule="evenodd" clip-rule="evenodd" d="M10 4.375C10.3452 4.375 10.625 4.65482 10.625 5V9.61373L13.6128 11.1076C13.9216 11.262 14.0467 11.6374 13.8924 11.9462C13.738 12.2549 13.3626 12.3801 13.0538 12.2257L9.72049 10.559C9.50875 10.4531 9.375 10.2367 9.375 10V5C9.375 4.65482 9.65482 4.375 10 4.375Z" fill="#56817D"/>
    </symbol>
    <symbol id="edit" viewBox="0 0 20 20">
        <path fill-rule="evenodd" clip-rule="evenodd" d="M16.2751 1.79718C16.032 1.79718 15.7912 1.84507 15.5666 1.93812C15.3419 2.03117 15.1378 2.16755 14.9659 2.33948L3.06517 14.2402L2.08325 17.8406L5.68362 16.8587L17.5843 4.95793C17.7563 4.786 17.8927 4.58189 17.9857 4.35725C18.0788 4.13262 18.1266 3.89185 18.1266 3.6487C18.1266 3.40556 18.0788 3.16479 17.9857 2.94016C17.8927 2.71552 17.7563 2.51141 17.5843 2.33948C17.4124 2.16755 17.2083 2.03117 16.9837 1.93812C16.759 1.84507 16.5183 1.79718 16.2751 1.79718ZM15.0552 0.703592C15.442 0.543391 15.8565 0.460938 16.2751 0.460938C16.6937 0.460938 17.1083 0.543391 17.495 0.703592C17.8818 0.863792 18.2332 1.0986 18.5292 1.39461C18.8252 1.69062 19.06 2.04204 19.2202 2.4288C19.3804 2.81556 19.4629 3.23008 19.4629 3.6487C19.4629 4.06733 19.3804 4.48185 19.2202 4.86861C19.06 5.25537 18.8252 5.60679 18.5292 5.9028L6.50302 17.929C6.42081 18.0112 6.31856 18.0705 6.20638 18.1011L1.30682 19.4374C1.07551 19.5005 0.82813 19.4348 0.658594 19.2652C0.489058 19.0957 0.423363 18.8483 0.486448 18.617L1.82269 13.7174C1.85328 13.6053 1.91262 13.503 1.99484 13.4208L14.021 1.39461C14.317 1.0986 14.6685 0.863792 15.0552 0.703592Z" fill="#56817D"/>
    </symbol>

</svg>