<svg width="28" height="28" viewBox="0 0 28 28" fill="none" xmlns="http://www.w3.org/2000/svg">
<path fill-rule="evenodd" clip-rule="evenodd" d="M2.625 7C2.625 6.51675 3.01675 6.125 3.5 6.125H24.5C24.9832 6.125 25.375 6.51675 25.375 7C25.375 7.48325 24.9832 7.875 24.5 7.875H3.5C3.01675 7.875 2.625 7.48325 2.625 7Z" fill="#56817D"/>
<path fill-rule="evenodd" clip-rule="evenodd" d="M11.6666 3.20834C11.2798 3.20834 10.9089 3.36199 10.6354 3.63548C10.3619 3.90897 10.2083 4.2799 10.2083 4.66668V7.00001C10.2083 7.48326 9.8165 7.87501 9.33325 7.87501C8.85 7.87501 8.45825 7.48326 8.45825 7.00001V4.66668C8.45825 3.81577 8.79627 2.99972 9.39795 2.39804C9.99963 1.79636 10.8157 1.45834 11.6666 1.45834H16.3333C17.1842 1.45834 18.0002 1.79636 18.6019 2.39804C19.2036 2.99972 19.5416 3.81577 19.5416 4.66668V7.00001C19.5416 7.48326 19.1498 7.87501 18.6666 7.87501C18.1833 7.87501 17.7916 7.48326 17.7916 7.00001V4.66668C17.7916 4.2799 17.6379 3.90897 17.3644 3.63548C17.091 3.36199 16.72 3.20834 16.3333 3.20834H11.6666ZM5.83325 6.12501C6.3165 6.12501 6.70825 6.51676 6.70825 7.00001V23.3333C6.70825 23.7201 6.8619 24.091 7.13539 24.3645C7.40888 24.638 7.77981 24.7917 8.16659 24.7917H19.8333C20.22 24.7917 20.591 24.638 20.8644 24.3645C21.1379 24.091 21.2916 23.7201 21.2916 23.3333V7.00001C21.2916 6.51676 21.6833 6.12501 22.1666 6.12501C22.6498 6.12501 23.0416 6.51676 23.0416 7.00001V23.3333C23.0416 24.1842 22.7036 25.0003 22.1019 25.602C21.5002 26.2037 20.6842 26.5417 19.8333 26.5417H8.16659C7.31568 26.5417 6.49963 26.2037 5.89795 25.602C5.29627 25.0003 4.95825 24.1842 4.95825 23.3333V7.00001C4.95825 6.51676 5.35 6.12501 5.83325 6.12501Z" fill="#56817D"/>
<path fill-rule="evenodd" clip-rule="evenodd" d="M11.6667 11.9583C12.15 11.9583 12.5417 12.3501 12.5417 12.8333V19.8333C12.5417 20.3166 12.15 20.7083 11.6667 20.7083C11.1835 20.7083 10.7917 20.3166 10.7917 19.8333V12.8333C10.7917 12.3501 11.1835 11.9583 11.6667 11.9583Z" fill="#56817D"/>
<path fill-rule="evenodd" clip-rule="evenodd" d="M16.3333 11.9583C16.8165 11.9583 17.2083 12.3501 17.2083 12.8333V19.8333C17.2083 20.3166 16.8165 20.7083 16.3333 20.7083C15.85 20.7083 15.4583 20.3166 15.4583 19.8333V12.8333C15.4583 12.3501 15.85 11.9583 16.3333 11.9583Z" fill="#56817D"/>
</svg>
