<svg width="32" height="32" viewBox="0 0 32 32" fill="none" xmlns="http://www.w3.org/2000/svg">
<path fill-rule="evenodd" clip-rule="evenodd" d="M6.18824 20.855C7.37597 19.6673 8.98688 19 10.6666 19H21.3333C23.013 19 24.6239 19.6673 25.8116 20.855C26.9993 22.0427 27.6666 23.6536 27.6666 25.3333V28C27.6666 28.5523 27.2189 29 26.6666 29C26.1143 29 25.6666 28.5523 25.6666 28V25.3333C25.6666 24.1841 25.21 23.0819 24.3974 22.2692C23.5847 21.4565 22.4825 21 21.3333 21H10.6666C9.51731 21 8.41511 21.4565 7.60246 22.2692C6.7898 23.0819 6.33325 24.1841 6.33325 25.3333V28C6.33325 28.5523 5.88554 29 5.33325 29C4.78097 29 4.33325 28.5523 4.33325 28V25.3333C4.33325 23.6536 5.00051 22.0427 6.18824 20.855Z" fill="#F3FAF5"/>
<path fill-rule="evenodd" clip-rule="evenodd" d="M16.0001 5C13.6068 5 11.6667 6.9401 11.6667 9.33333C11.6667 11.7266 13.6068 13.6667 16.0001 13.6667C18.3933 13.6667 20.3334 11.7266 20.3334 9.33333C20.3334 6.9401 18.3933 5 16.0001 5ZM9.66675 9.33333C9.66675 5.83553 12.5023 3 16.0001 3C19.4979 3 22.3334 5.83553 22.3334 9.33333C22.3334 12.8311 19.4979 15.6667 16.0001 15.6667C12.5023 15.6667 9.66675 12.8311 9.66675 9.33333Z" fill="#F3FAF5"/>
</svg>
